<svg width="71" height="70" viewBox="0 0 71 70" fill="none" xmlns="http://www.w3.org/2000/svg">
<g id="ic:outline-attach-money">
<path id="Vector" d="M34.9167 31.7917C28.2958 30.0708 26.1667 28.2917 26.1667 25.5208C26.1667 22.3417 29.1125 20.125 34.0417 20.125C39.2333 20.125 41.1583 22.6042 41.3333 26.25H47.7792C47.575 21.2333 44.5125 16.625 38.4167 15.1375V8.75H29.6667V15.05C24.0083 16.275 19.4583 19.95 19.4583 25.5792C19.4583 32.3167 25.0292 35.6708 33.1667 37.625C40.4583 39.375 41.9167 41.9417 41.9167 44.6542C41.9167 46.6667 40.4875 49.875 34.0417 49.875C28.0333 49.875 25.6708 47.1917 25.35 43.75H18.9333C19.2833 50.1375 24.0667 53.725 29.6667 54.9208V61.25H38.4167V54.9792C44.1042 53.9 48.625 50.6042 48.625 44.625C48.625 36.3417 41.5375 33.5125 34.9167 31.7917Z" fill="#3F0393"/>
</g>
</svg>
