<svg width="71" height="70" viewBox="0 0 71 70" fill="none" xmlns="http://www.w3.org/2000/svg">
<g id="oui:online">
<path id="Vector" d="M35.5 61.25C34.6382 61.25 33.7848 61.0803 32.9886 60.7505C32.1924 60.4207 31.469 59.9373 30.8596 59.3279C30.2502 58.7185 29.7668 57.9951 29.4371 57.1989C29.1073 56.4027 28.9375 55.5493 28.9375 54.6875C28.9375 53.8257 29.1073 52.9724 29.4371 52.1762C29.7668 51.38 30.2502 50.6565 30.8596 50.0471C31.469 49.4377 32.1924 48.9544 32.9886 48.6246C33.7848 48.2948 34.6382 48.125 35.5 48.125C37.2405 48.125 38.9097 48.8164 40.1404 50.0471C41.3711 51.2778 42.0625 52.947 42.0625 54.6875C42.0625 56.428 41.3711 58.0972 40.1404 59.3279C38.9097 60.5586 37.2405 61.25 35.5 61.25ZM35.5 56.875C36.0802 56.875 36.6366 56.6446 37.0468 56.2343C37.457 55.8241 37.6875 55.2677 37.6875 54.6875C37.6875 54.1074 37.457 53.551 37.0468 53.1407C36.6366 52.7305 36.0802 52.5 35.5 52.5C34.9198 52.5 34.3634 52.7305 33.9532 53.1407C33.543 53.551 33.3125 54.1074 33.3125 54.6875C33.3125 55.2677 33.543 55.8241 33.9532 56.2343C34.3634 56.6446 34.9198 56.875 35.5 56.875ZM49.4519 40.95C49.8292 41.3726 50.0279 41.9251 50.0061 42.4912C49.9842 43.0573 49.7436 43.5929 49.3349 43.9852C48.9262 44.3775 48.3812 44.5959 47.8147 44.5945C47.2481 44.593 46.7042 44.3719 46.2975 43.9775C44.904 42.5181 43.2281 41.3575 41.3719 40.5662C39.5157 39.775 37.5178 39.3697 35.5 39.375C31.4006 39.375 27.5681 41.0288 24.7681 43.9119C24.3623 44.3211 23.8113 44.5535 23.235 44.5588C22.6587 44.564 22.1036 44.3416 21.6903 43.9399C21.2771 43.5382 21.0391 42.9896 21.028 42.4134C21.0169 41.8371 21.2337 41.2798 21.6313 40.8625C23.4304 39.0036 25.5858 37.5263 27.9687 36.5191C30.3515 35.5118 32.913 34.9952 35.5 35C40.8375 35 45.8294 37.1744 49.4519 40.95ZM58.2894 31.5875C58.4884 31.7946 58.6448 32.0389 58.7494 32.3065C58.8541 32.574 58.905 32.8595 58.8993 33.1468C58.8937 33.434 58.8315 33.7173 58.7163 33.9805C58.6011 34.2436 58.4352 34.4816 58.2281 34.6806C58.021 34.8797 57.7767 35.0361 57.5092 35.1407C57.2416 35.2454 56.9561 35.2963 56.6689 35.2906C56.3816 35.2849 56.0984 35.2227 55.8352 35.1076C55.572 34.9924 55.3341 34.8265 55.135 34.6194C52.5983 31.969 49.5502 29.8608 46.1753 28.4222C42.8004 26.9837 39.1687 26.2447 35.5 26.25C31.8607 26.2454 28.2576 26.9731 24.9054 28.3899C21.5532 29.8067 18.5204 31.8836 15.9875 34.4969C15.5831 34.9135 15.0299 35.1523 14.4494 35.1609C13.8689 35.1695 13.3088 34.9472 12.8922 34.5428C12.4757 34.1385 12.2368 33.5852 12.2282 33.0047C12.2196 32.4242 12.4419 31.8641 12.8463 31.4475C15.7873 28.4143 19.3085 26.0036 23.2003 24.3591C27.0922 22.7146 31.275 21.8698 35.5 21.875C39.7586 21.8691 43.9741 22.7267 47.8919 24.3961C51.8096 26.0655 55.3482 28.5119 58.2937 31.5875M67.1312 22.2338C67.5086 22.6564 67.7072 23.2089 67.6854 23.775C67.6636 24.3411 67.423 24.8766 67.0143 25.2689C66.6055 25.6612 66.0605 25.8797 65.494 25.8782C64.9275 25.8768 64.3836 25.6556 63.9769 25.2613C60.2964 21.4194 55.8755 18.3632 50.9811 16.2774C46.0867 14.1915 40.8203 13.1191 35.5 13.125C30.2217 13.12 24.9962 14.1763 20.1342 16.2311C15.2722 18.2859 10.8731 21.2973 7.19815 25.0863C6.99873 25.2956 6.75978 25.4633 6.49513 25.5798C6.23048 25.6962 5.94537 25.759 5.6563 25.7645C5.36723 25.7701 5.07992 25.7183 4.811 25.6121C4.54207 25.5059 4.29687 25.3475 4.08955 25.1459C3.88224 24.9444 3.71693 24.7038 3.60319 24.438C3.48946 24.1722 3.42954 23.8864 3.42691 23.5973C3.42428 23.3082 3.47899 23.0214 3.58788 22.7536C3.69676 22.4858 3.85767 22.2422 4.06128 22.0369C8.14388 17.8285 13.0307 14.4837 18.4315 12.2012C23.8323 9.91868 29.6367 8.74504 35.5 8.75002C41.4098 8.74464 47.2594 9.93664 52.6958 12.2541C58.1323 14.5715 63.0428 17.9664 67.1312 22.2338Z" fill="#3F0393"/>
</g>
</svg>
